<?xml version="1.0" encoding="UTF-8"?>
<svg version="1.1" xmlns="http://www.w3.org/2000/svg" width="226" height="226">
<path d="M0 0 C1.59256496 0.00183859 3.18513481 0.00103605 4.77769756 -0.00219154 C9.03965183 -0.00354522 13.30059374 0.03120736 17.56230927 0.07347107 C21.5624457 0.10766201 25.56233694 0.10925077 29.56262207 0.11352539 C41.25827193 0.14499923 52.95373374 0.2287664 64.64916992 0.30615234 C90.78104492 0.42990234 116.91291992 0.55365234 143.83666992 0.68115234 C143.83666992 53.15115234 143.83666992 105.62115234 143.83666992 159.68115234 C132.94666992 159.68115234 122.05666992 159.68115234 110.83666992 159.68115234 C110.83666992 118.10115234 110.83666992 76.52115234 110.83666992 33.68115234 C80.47666992 33.68115234 50.11666992 33.68115234 18.83666992 33.68115234 C18.83666992 43.58115234 18.83666992 53.48115234 18.83666992 63.68115234 C39.62666992 63.68115234 60.41666992 63.68115234 81.83666992 63.68115234 C81.83666992 95.36115234 81.83666992 127.04115234 81.83666992 159.68115234 C40.25666992 159.68115234 -1.32333008 159.68115234 -44.16333008 159.68115234 C-44.16333008 169.25115234 -44.16333008 178.82115234 -44.16333008 188.68115234 C-2.58333008 188.68115234 38.99666992 188.68115234 81.83666992 188.68115234 C81.83666992 199.57115234 81.83666992 210.46115234 81.83666992 221.68115234 C29.36666992 221.68115234 -23.10333008 221.68115234 -77.16333008 221.68115234 C-77.30770508 195.56990234 -77.45208008 169.45865234 -77.60083008 142.55615234 C-77.66455811 134.3098584 -77.72828613 126.06356445 -77.79394531 117.56738281 C-77.82556152 107.50170898 -77.82556152 107.50170898 -77.83143616 102.79031372 C-77.83796126 99.49774192 -77.86420371 96.20595917 -77.90235901 92.91360474 C-77.95039572 88.71291846 -77.96476554 84.51337848 -77.95483601 80.31244302 C-77.95691201 78.77142364 -77.97078351 77.23036398 -77.99783599 75.68958068 C-78.19111262 64.14445772 -78.19111262 64.14445772 -75.6155262 60.47746658 C-73.86644692 58.96768254 -72.16103316 57.8279234 -70.16333008 56.68115234 C-68.38389743 54.83228849 -68.38389743 54.83228849 -67.03833008 53.11865234 C-64.56051894 50.13089591 -61.94462405 47.39460988 -59.16333008 44.68115234 C-57.99531544 43.5158352 -56.82873753 42.34907687 -55.66333008 41.18115234 C-55.06649414 40.58560547 -54.4696582 39.99005859 -53.85473633 39.37646484 C-52.42730626 37.94573818 -51.01258911 36.50234452 -49.60083008 35.05615234 C-47.16333008 32.68115234 -47.16333008 32.68115234 -44.28833008 30.36865234 C-41.081575 27.75543548 -38.49256594 24.72248223 -35.80786133 21.58740234 C-31.75238379 16.88651627 -27.1469627 12.87310496 -22.44458008 8.84130859 C-19.98822405 6.73621643 -19.98822405 6.73621643 -18.46846008 3.5887146 C-14.11891729 -1.59702012 -6.1845211 -0.0928404 0 0 Z M-44.16333008 96.68115234 C-44.16333008 106.58115234 -44.16333008 116.48115234 -44.16333008 126.68115234 C-13.47333008 126.68115234 17.21666992 126.68115234 48.83666992 126.68115234 C48.83666992 116.78115234 48.83666992 106.88115234 48.83666992 96.68115234 C18.14666992 96.68115234 -12.54333008 96.68115234 -44.16333008 96.68115234 Z " fill="#000000" transform="translate(79.163330078125,1.31884765625)"/>
</svg>
